HIERARCHY
ROOT joint_Root
{
	OFFSET 0.0 0.0 0.0
	CHANNELS 6 Xposition Yposition Zposition Zrotation Xrotation Yrotation 
	JOINT Hips
	{
		OFFSET -17.1583 93.1646 452.98
		CHANNELS 6 Xposition Yposition Zposition Zrotation Xrotation Yrotation 
		JOINT Spine
		{
			OFFSET 15.7357 0.0 0.0
			CHANNELS 6 Xposition Yposition Zposition Zrotation Xrotation Yrotation 
			JOINT Chest
			{
				OFFSET 8.98455 -0.406207 0.0
				CHANNELS 6 Xposition Yposition Zposition Zrotation Xrotation Yrotation 
				JOINT Neck
				{
					OFFSET 16.3773 0.0 0.0
					CHANNELS 6 Xposition Yposition Zposition Zrotation Xrotation Yrotation 
					JOINT Head
					{
						OFFSET 6.45672 0.0 0.0
						CHANNELS 6 Xposition Yposition Zposition Zrotation Xrotation Yrotation 
						End Site
						{
							OFFSET 0.0 0.0 0.0
						}
					}
				}
				JOINT Shoulder_L
				{
					OFFSET 12.9942 -0.242716 4.98039
					CHANNELS 6 Xposition Yposition Zposition Zrotation Xrotation Yrotation 
					JOINT UpperArm_L
					{
						OFFSET 5.34809 0.0 0.0
						CHANNELS 6 Xposition Yposition Zposition Zrotation Xrotation Yrotation 
						JOINT LowerArm_L
						{
							OFFSET 24.3286 1.87007e-05 0.0
							CHANNELS 6 Xposition Yposition Zposition Zrotation Xrotation Yrotation 
							JOINT Hand_L
							{
								OFFSET 22.2916 0.0 0.0
								CHANNELS 6 Xposition Yposition Zposition Zrotation Xrotation Yrotation 
								End Site
								{
									OFFSET 0.0 0.0 0.0
								}
							}
						}
					}
				}
				JOINT Shoulder_R
				{
					OFFSET 12.9945 -0.242716 -4.98039
					CHANNELS 6 Xposition Yposition Zposition Zrotation Xrotation Yrotation 
					JOINT UpperArm_R
					{
						OFFSET -5.34813 0.0 0.0
						CHANNELS 6 Xposition Yposition Zposition Zrotation Xrotation Yrotation 
						JOINT LowerArm_R
						{
							OFFSET -24.3289 0.000322201 0.0
							CHANNELS 6 Xposition Yposition Zposition Zrotation Xrotation Yrotation 
							JOINT Hand_R
							{
								OFFSET -22.2915 -0.000108084 0.0
								CHANNELS 6 Xposition Yposition Zposition Zrotation Xrotation Yrotation 
								End Site
								{
									OFFSET 0.0 0.0 0.0
								}
							}
						}
					}
				}
			}
		}
		JOINT UpperLeg_L
		{
			OFFSET -2.19248 -6.46944 0.0
			CHANNELS 6 Xposition Yposition Zposition Zrotation Xrotation Yrotation 
			JOINT LowerLeg_L
			{
				OFFSET 39.0811 0.0 -1.23785e-05
				CHANNELS 6 Xposition Yposition Zposition Zrotation Xrotation Yrotation 
				JOINT Foot_L
				{
					OFFSET 40.9854 0.0 -1.26872e-05
					CHANNELS 6 Xposition Yposition Zposition Zrotation Xrotation Yrotation 
					JOINT Toes_L
					{
						OFFSET 11.7543 0.0 0.0
						CHANNELS 6 Xposition Yposition Zposition Zrotation Xrotation Yrotation 
						End Site
						{
							OFFSET 0.0 0.0 0.0
						}
					}
				}
			}
		}
		JOINT UpperLeg_R
		{
			OFFSET -2.19251 6.46944 0.0
			CHANNELS 6 Xposition Yposition Zposition Zrotation Xrotation Yrotation 
			JOINT LowerLeg_R
			{
				OFFSET -39.0811 -0.00228153 -0.0401928
				CHANNELS 6 Xposition Yposition Zposition Zrotation Xrotation Yrotation 
				JOINT Foot_R
				{
					OFFSET -40.9854 0.0 0.0
					CHANNELS 6 Xposition Yposition Zposition Zrotation Xrotation Yrotation 
					JOINT Toes_R
					{
						OFFSET -11.7543 0.0 0.0
						CHANNELS 6 Xposition Yposition Zposition Zrotation Xrotation Yrotation 
						End Site
						{
							OFFSET 0.0 0.0 0.0
						}
					}
				}
			}
		}
	}
}
MOTION
Frames:	8
Frame Time:	0.0333333
0.000000 0.000000 0.000000 0.000000 0.000000 -0.000000 -2.269540 92.688000 3.243060 87.671900 2.536810 1.860920 15.735700 0.000005 -0.000001 60.806800 87.112800 -58.218000 8.984550 -0.406207 -0.000000 -2.652550 -3.050680 5.108050 16.377300 -0.000001 -0.000001 2.543510 1.962880 -1.433200 6.456720 -0.000001 -0.000000 -0.126380 3.756810 -4.980080 12.994200 -0.242716 4.980390 -92.630000 8.917210 -73.493400 5.348090 -0.000007 -0.000001 -73.681900 23.173600 2.186820 24.328600 0.000019 0.000005 10.072200 23.292100 -24.189900 22.291600 -0.000001 0.000005 -2.010220 5.043980 6.369330 12.994500 -0.242716 -4.980390 88.136500 5.981930 -72.661300 -5.348130 -0.000001 -0.000004 -67.873900 6.553810 -9.254530 -24.328900 0.000322 -0.000009 -0.008208 -0.385171 -1.061990 -22.291500 -0.000108 -0.000004 -0.885793 5.236520 1.786730 -2.192480 -6.469440 -0.000000 -171.542000 -1.417910 2.500790 39.081100 -0.000007 -0.000012 0.050710 -0.198248 14.348400 40.985400 -0.000006 -0.000013 -2.211750 12.615400 -70.614600 11.754300 -0.000000 0.000003 -0.000489 0.175492 -9.458490 -2.192510 6.469440 -0.000001 178.207000 6.491870 -175.538000 -39.081100 -0.002282 -0.040193 0.002702 0.002989 11.973500 -40.985400 0.000008 0.000006 -6.250020 6.022070 -69.252200 -11.754300 -0.000006 -0.000006 -0.008284 0.258005 -6.094630
0.000000 0.000000 0.000000 0.000000 0.000000 -0.000000 -2.115110 92.727500 3.283280 87.732500 3.090520 1.524090 15.735700 0.000005 -0.000001 57.768100 87.097900 -55.245100 8.984550 -0.406207 -0.000000 -2.780080 -3.326520 4.966790 16.377300 -0.000001 -0.000001 1.610810 2.059360 -2.598550 6.456720 -0.000001 -0.000000 -1.087860 3.652680 -6.609300 12.994200 -0.242716 4.980390 -92.628800 8.956180 -73.568200 5.348090 -0.000007 -0.000001 -72.556600 21.495000 1.981280 24.328600 0.000019 0.000005 10.675300 24.297400 -24.613500 22.291600 -0.000001 0.000005 -2.788310 5.060510 6.004730 12.994500 -0.242716 -4.980390 88.251200 5.505430 -72.347400 -5.348130 -0.000001 -0.000004 -66.817400 -3.023420 -10.365000 -24.328900 0.000322 -0.000009 -0.001189 0.862328 -0.000005 -22.291500 -0.000108 -0.000004 -6.239980 5.228830 1.989340 -2.192480 -6.469440 -0.000000 -171.675000 -1.356430 2.224800 39.081100 -0.000007 -0.000012 0.050994 -0.203496 14.068300 40.985400 -0.000006 -0.000013 -2.080850 13.019700 -70.529700 11.754300 -0.000000 0.000003 -0.000299 0.172511 -9.579580 -2.192510 6.469440 -0.000001 177.961000 7.139620 -175.466000 -39.081100 -0.002282 -0.040193 -0.002387 0.028602 11.317000 -40.985400 0.000008 0.000006 -6.956700 6.223840 -68.793000 -11.754300 -0.000006 -0.000006 -0.008525 0.259935 -6.015770
0.000000 0.000000 0.000000 0.000000 0.000000 -0.000000 -1.920180 92.804000 3.308800 87.826300 3.744440 0.830707 15.735700 0.000005 -0.000001 53.640100 87.288600 -51.318700 8.984550 -0.406207 -0.000000 -3.327950 -3.437910 4.545120 16.377300 -0.000001 -0.000001 0.470966 2.024410 -3.194450 6.456720 -0.000001 -0.000000 -1.504460 3.670750 -8.311440 12.994200 -0.242716 4.980390 -92.562700 8.863270 -73.801900 5.348090 -0.000007 -0.000001 -71.304700 18.938900 2.016300 24.328600 0.000019 0.000005 10.682700 24.115400 -24.782700 22.291600 -0.000001 0.000005 -2.825290 5.069380 5.806890 12.994500 -0.242716 -4.980390 88.580000 4.358190 -71.933700 -5.348130 -0.000001 -0.000004 -64.804600 -13.174200 -11.407400 -24.328900 0.000322 -0.000009 -0.001192 4.831770 0.000015 -22.291500 -0.000108 -0.000004 -13.450400 5.165640 3.573980 -2.192480 -6.469440 -0.000000 -171.848000 -1.441180 1.728510 39.081100 -0.000007 -0.000012 0.050543 -0.211703 13.428000 40.985400 -0.000006 -0.000013 -1.958890 13.595700 -70.224300 11.754300 -0.000000 0.000003 -0.000559 0.176550 -9.415500 -2.192510 6.469440 -0.000001 177.692000 7.781290 -175.474000 -39.081100 -0.002282 -0.040193 -0.006716 0.056607 10.072000 -40.985400 0.000008 0.000006 -7.998560 6.358770 -67.847200 -11.754300 -0.000006 -0.000006 -0.008414 0.259043 -6.052230
0.000000 0.000000 0.000000 0.000000 0.000000 -0.000000 -1.736960 92.987200 3.236790 87.951300 4.578580 -0.471803 15.735700 0.000005 -0.000001 46.205100 87.662800 -44.270800 8.984550 -0.406207 -0.000000 -4.334960 -3.436630 3.741600 16.377300 -0.000001 -0.000001 -1.016760 1.964470 -3.767430 6.456720 -0.000001 -0.000000 -1.599710 3.414860 -9.181140 12.994200 -0.242716 4.980390 -92.519200 8.749840 -73.868700 5.348090 -0.000007 -0.000001 -69.291300 16.239200 1.917030 24.328600 0.000019 0.000005 10.642300 23.714500 -25.043200 22.291600 -0.000001 0.000005 -3.290870 5.088060 5.386140 12.994500 -0.242716 -4.980390 88.959600 3.134090 -71.625300 -5.348130 -0.000001 -0.000004 -60.864500 -21.435700 -11.280000 -24.328900 0.000322 -0.000009 -0.001035 9.109270 0.000035 -22.291500 -0.000108 -0.000004 -17.142700 5.055420 6.116610 -2.192480 -6.469440 -0.000000 -171.917000 -1.718690 0.924154 39.081100 -0.000007 -0.000012 0.031831 -0.151263 11.884000 40.985400 -0.000006 -0.000013 -3.027550 14.648900 -68.941700 11.754300 -0.000000 0.000003 -0.000619 0.177458 -9.378600 -2.192510 6.469440 -0.000001 177.488000 8.466990 -175.781000 -39.081100 -0.002282 -0.040193 -0.005181 0.060346 8.039390 -40.985400 0.000008 0.000006 -9.500360 6.315760 -66.246800 -11.754300 -0.000006 -0.000006 -0.008168 0.257070 -6.132840
0.000000 0.000000 0.000000 0.000000 0.000000 -0.000000 -1.625590 93.247800 3.240510 88.155700 5.512270 -1.526720 15.735700 0.000005 -0.000001 39.399500 87.916800 -38.004600 8.984550 -0.406207 -0.000000 -5.083660 -3.372340 2.642980 16.377300 -0.000001 -0.000001 -2.548070 1.714270 -4.185860 6.456720 -0.000001 -0.000000 -2.069280 2.977570 -9.983850 12.994200 -0.242716 4.980390 -92.477100 8.568300 -73.808800 5.348090 -0.000007 -0.000001 -66.874100 13.554000 1.701570 24.328600 0.000019 0.000005 10.726300 23.286900 -25.601600 22.291600 -0.000001 0.000005 -2.849590 5.092440 5.286250 12.994500 -0.242716 -4.980390 89.380400 1.817010 -71.167900 -5.348130 -0.000001 -0.000004 -55.412300 -27.281400 -10.471100 -24.328900 0.000322 -0.000009 -0.001096 7.700790 0.000029 -22.291500 -0.000108 -0.000004 -13.022500 5.036440 6.537520 -2.192480 -6.469440 -0.000000 -171.686000 -2.076480 0.980897 39.081100 -0.000007 -0.000012 -0.004115 0.026477 8.833000 40.985400 -0.000006 -0.000013 -7.289020 16.311500 -65.142200 11.754300 -0.000000 0.000003 -0.000482 0.175372 -9.463360 -2.192510 6.469440 -0.000001 177.435000 9.023110 -176.505000 -39.081100 -0.002282 -0.040193 -0.001680 0.039067 7.327230 -40.985400 0.000008 0.000006 -9.725920 5.761950 -65.061600 -11.754300 -0.000006 -0.000006 -0.007054 0.247791 -6.511680
0.000000 0.000000 0.000000 0.000000 0.000000 -0.000000 -1.566550 93.592200 3.137110 88.349500 6.307020 -2.756290 15.735700 0.000005 -0.000001 30.021300 88.133500 -29.259100 8.984550 -0.406207 -0.000000 -5.881230 -3.318280 1.356040 16.377300 -0.000001 -0.000001 -4.032090 1.449010 -4.898390 6.456720 -0.000001 -0.000000 -2.515290 2.414910 -10.425200 12.994200 -0.242716 4.980390 -92.367000 8.211420 -73.859100 5.348090 -0.000007 -0.000001 -64.357200 10.173400 1.689580 24.328600 0.000019 0.000005 10.814000 22.859700 -26.183200 22.291600 -0.000001 0.000005 -1.933120 5.081140 5.542620 12.994500 -0.242716 -4.980390 89.868300 0.380284 -70.892400 -5.348130 -0.000001 -0.000004 -49.343300 -33.285600 -9.290300 -24.328900 0.000322 -0.000009 -0.001186 1.754360 -0.000000 -22.291500 -0.000108 -0.000004 -5.040090 5.122790 4.591000 -2.192480 -6.469440 -0.000000 -171.490000 -2.377560 2.949880 39.081100 -0.000007 -0.000012 0.002379 -0.088348 1.543000 40.985400 -0.000006 -0.000013 -12.183600 17.187200 -58.698500 11.754300 -0.000000 0.000003 0.000270 0.162954 -9.967690 -2.192510 6.469440 -0.000001 177.441000 9.709410 -177.583000 -39.081100 -0.002282 -0.040193 0.002427 0.007767 6.731870 -40.985400 0.000008 0.000006 -10.027000 5.475070 -63.637000 -11.754300 -0.000006 -0.000006 -0.006222 0.240503 -6.809050
0.000000 0.000000 0.000000 0.000000 0.000000 -0.000000 -1.562490 93.904300 2.970200 88.475400 6.959550 -3.708070 15.735700 0.000005 -0.000001 23.017600 88.199100 -22.907300 8.984550 -0.406207 -0.000000 -6.360500 -3.323100 0.036443 16.377300 -0.000001 -0.000001 -5.531440 1.311580 -5.815910 6.456720 -0.000001 -0.000000 -2.945410 1.931990 -11.184300 12.994200 -0.242716 4.980390 -92.284700 7.945410 -73.900500 5.348090 -0.000007 -0.000001 -61.709100 5.700120 1.705980 24.328600 0.000019 0.000005 10.827300 22.522400 -26.532900 22.291600 -0.000001 0.000005 -0.781517 5.074620 5.689400 12.994500 -0.242716 -4.980390 90.429900 -1.237310 -70.839400 -5.348130 -0.000001 -0.000004 -42.851700 -38.077600 -7.769120 -24.328900 0.000322 -0.000009 -0.001161 -6.946600 -0.000043 -22.291500 -0.000108 -0.000004 2.350270 5.209460 2.482600 -2.192480 -6.469440 -0.000000 -171.632000 -2.735690 1.547890 39.081100 -0.000007 -0.000012 0.002646 -0.092732 1.635080 40.985400 -0.000006 -0.000013 -12.495900 17.842100 -57.240000 11.754300 -0.000000 0.000003 0.000775 0.153368 -10.356800 -2.192510 6.469440 -0.000001 177.505000 10.435600 -178.609000 -39.081100 -0.002282 -0.040193 0.005697 -0.020749 6.466680 -40.985400 0.000008 0.000006 -10.195800 5.434910 -62.313900 -11.754300 -0.000006 -0.000006 -0.004974 0.228878 -7.283020
0.000000 0.000000 0.000000 0.000000 0.000000 -0.000000 -1.608680 94.139900 2.794890 88.536700 7.538100 -4.274290 15.735700 0.000005 -0.000001 21.101400 88.110800 -21.642400 8.984550 -0.406207 -0.000000 -6.428450 -3.452090 -1.277540 16.377300 -0.000001 -0.000001 -6.954410 1.265130 -7.056930 6.456720 -0.000001 -0.000000 -3.569070 1.655780 -12.449400 12.994200 -0.242716 4.980390 -92.236100 7.805760 -73.960100 5.348090 -0.000007 -0.000001 -58.995700 0.609306 1.583930 24.328600 0.000019 0.000005 10.305900 21.584600 -26.302600 22.291600 -0.000001 0.000005 0.683481 5.048570 6.268410 12.994500 -0.242716 -4.980390 90.994200 -2.848350 -70.749100 -5.348130 -0.000001 -0.000004 -36.569200 -43.004200 -6.792260 -24.328900 0.000322 -0.000009 -0.001096 -12.813800 -0.000073 -22.291500 -0.000108 -0.000004 8.168810 5.224570 2.095030 -2.192480 -6.469440 -0.000000 -171.685000 -3.011080 0.538299 39.081100 -0.000007 -0.000012 0.003002 -0.095654 1.798330 40.985400 -0.000006 -0.000013 -12.607200 18.439200 -56.170200 11.754300 -0.000000 0.000003 0.001140 0.145506 -10.675900 -2.192510 6.469440 -0.000001 177.623000 10.964100 -179.318000 -39.081100 -0.002282 -0.040193 0.007892 -0.040732 6.370120 -40.985400 0.000008 0.000006 -10.302100 5.257450 -61.371700 -11.754300 -0.000006 -0.000006 -0.004361 0.222814 -7.530130
